# This file uses meters as units for non-parametric coordinates.

mtllib low.mtl
v -224.388788 403.823778 -69.134028
v 224.388687 403.823677 -69.134067
v -225.009753 459.736033 -51.749507
v 223.764926 459.750522 -51.788247
v -225.485427 511.197680 -26.865789
v 223.289303 511.216642 -28.922816
v -225.592031 558.809958 2.378094
v 223.182649 558.834309 2.344350
v -225.328242 601.617350 38.289229
v 223.446590 601.645920 38.259884
v -224.636462 638.740034 80.155954
v 224.134811 638.786702 80.117604
v -220.977475 7.118669 248.349063
v 220.977374 7.118679 248.349063
v -220.977475 652.775606 248.349063
v 220.977374 652.775606 248.349063
v 224.303485 656.595236 106.287328
v -224.388788 656.186919 106.290652
v -224.388788 3.707348 9.259936
v 224.388687 3.707335 9.259937
v -224.388788 18.136292 -25.106374
v -224.388788 47.735022 -51.796536
v -224.388788 82.101348 -69.134054
v 224.388687 18.136289 -25.817313
v 224.388687 47.735022 -51.795606
v 224.388687 82.101348 -69.134060
v -149.074818 78.424422 248.349063
v 149.074780 78.424422 248.349063
v 150.100134 581.469893 248.349063
v -150.100210 581.469893 248.349063
v -149.074818 78.424435 300.749070
v 149.074780 78.424435 300.749070
v 150.100134 581.469893 300.749070
v -150.100210 581.469893 300.749070
v -126.410765 101.134723 300.749070
v 126.410727 101.134729 300.749070
v 127.343495 558.759579 300.749070
v -127.343572 558.759579 300.749044
v -125.502310 102.045021 288.349076
v 125.502272 102.045021 288.349076
v 126.431341 557.849255 288.349076
v -126.431418 557.849255 288.349076
vt 0.358812 0.616662
vt 0.016974 0.616681
vt 0.016961 0.371623
vt 0.358798 0.371603
vt 0.017452 0.661283
vt 0.359288 0.661262
vt 0.017817 0.704180
vt 0.359656 0.704803
vt 0.017927 0.747571
vt 0.359763 0.747364
vt 0.017752 0.790137
vt 0.359588 0.789925
vt 0.017255 0.832763
vt 0.359088 0.832547
vt 0.800629 0.015266
vt 0.982764 0.017861
vt 0.982781 0.509663
vt 0.874377 0.512265
vt 0.016968 0.283414
vt 0.593823 0.991238
vt 0.383184 0.991073
vt 0.381648 0.877109
vt 0.354957 0.869205
vt 0.355008 0.977421
vt 0.015827 0.977440
vt 0.015831 0.869207
vt 0.568655 0.512697
vt 0.460582 0.509784
vt 0.460598 0.017981
vt 0.642733 0.015387
vt 0.358914 0.856344
vt 0.017142 0.857011
vt 0.854635 0.498976
vt 0.358795 0.311926
vt 0.016957 0.312305
vt 0.358797 0.342284
vt 0.016959 0.342303
vt 0.689238 0.362759
vt 0.689240 0.048923
vt 0.702448 0.075100
vt 0.702456 0.320158
vt 0.358805 0.283535
vt 0.595538 0.877276
vt 0.388934 0.014771
vt 0.388934 0.219829
vt 0.016566 0.220587
vt 0.016566 0.014012
vt 0.379445 0.862879
vt 0.379445 0.526238
vt 0.433759 0.581007
vt 0.433760 0.808110
vt 0.871248 0.526238
vt 0.816933 0.580226
vt 0.871248 0.862879
vt 0.816933 0.808891
vt 0.905750 0.989729
vt 0.618895 0.989729
vt 0.618895 0.939314
vt 0.905750 0.939314
vt 0.932084 0.906109
vt 0.932084 0.522934
vt 0.971997 0.522934
vt 0.971998 0.906109
vt 0.616617 0.879774
vt 0.905445 0.879774
vt 0.905445 0.930189
vt 0.616617 0.930189
vt 0.011643 0.231406
vt 0.394817 0.231406
vt 0.394817 0.271320
vt 0.011643 0.271320
vt 0.454286 0.799366
vt 0.454286 0.591158
vt 0.470146 0.606986
vt 0.470146 0.783539
vt 0.805579 0.590443
vt 0.789720 0.606334
vt 0.805579 0.800082
vt 0.789720 0.784190
vt 0.588488 0.713265
vt 0.776955 0.712961
vt 0.775067 0.726170
vt 0.586973 0.726032
vt 0.776199 0.638222
vt 0.482582 0.638238
vt 0.482527 0.627255
vt 0.775874 0.627194
vt 0.775840 0.699389
vt 0.584315 0.699229
vt 0.583758 0.687791
vt 0.774644 0.687716
vt 0.482446 0.652474
vt 0.776062 0.652490
vt 0.775737 0.663519
vt 0.482391 0.663457
vt 0.669452 0.026378
vt 0.671819 0.401962
vt 0.648003 0.438233
vt 0.620644 0.470843
vt 0.588756 0.499132
vt 0.754122 0.048802
vt 0.754153 0.362627
vt 0.740906 0.320038
vt 0.740915 0.074979
vt 0.774452 0.026257
vt 0.773109 0.401827
vt 0.795384 0.438094
vt 0.822739 0.470700
vn -0.000007 0.046198 -0.998932
vn -0.000007 0.045669 -0.998957
vn 0.000000 -0.048632 -0.998817
vn 0.000000 -0.048632 -0.998817
vn -0.001069 0.358125 -0.933673
vn -0.001082 0.358879 -0.933383
vn -0.002068 0.479167 -0.877721
vn -0.002067 0.479705 -0.877428
vn -0.001048 0.590584 -0.806976
vn -0.001050 0.590487 -0.807046
vn -0.000103 0.697617 -0.716471
vn -0.000102 0.697044 -0.717029
vn -0.000234 0.779137 -0.626854
vn -0.000232 0.778674 -0.627428
vn -0.999870 -0.001430 0.016032
vn -0.999839 -0.001338 0.017897
vn -0.999839 -0.001338 0.017897
vn -0.999843 -0.001344 0.017678
vn -0.000000 -0.999898 0.014267
vn -0.000000 -0.999898 0.014267
vn -0.000000 -0.999898 0.014267
vn -0.000000 -0.999898 0.014267
vn -0.000458 0.999676 0.025442
vn -0.000458 0.999676 0.025442
vn -0.000458 0.999676 0.025442
vn -0.000458 0.999676 0.025442
vn 0.999856 -0.001182 0.016939
vn 0.999843 -0.001255 0.017672
vn 0.999843 -0.001255 0.017672
vn 0.999877 -0.000867 0.015629
vn -0.000446 0.829218 -0.558925
vn -0.000446 0.829218 -0.558925
vn -0.999910 -0.001871 0.013270
vn -0.000304 -0.923440 -0.383744
vn -0.000463 -0.811217 -0.584745
vn -0.000463 -0.811003 -0.585042
vn -0.000304 -0.923440 -0.383744
vn -0.000302 -0.563863 -0.825869
vn -0.000302 -0.563863 -0.825868
vn 0.999954 0.001869 0.009384
vn 0.999951 0.001826 0.009728
vn 0.999847 0.000850 0.017453
vn 0.999847 0.000850 0.017453
vn 0.000000 0.000000 1.000000
vn 0.000000 0.000000 1.000000
vn 0.000000 0.000000 1.000000
vn 0.000000 0.000000 1.000000
vn -0.000000 0.000000 1.000000
vn 0.000000 0.000000 1.000000
vn 0.000000 0.000000 1.000000
vn -0.000000 0.000000 1.000000
vn 0.000000 0.000000 1.000000
vn 0.000000 0.000000 1.000000
vn -0.000000 0.000000 1.000000
vn -0.000000 0.000000 1.000000
vn 0.000000 -1.000000 0.000000
vn 0.000000 -1.000000 0.000000
vn 0.000000 -1.000000 0.000000
vn 0.000000 -1.000000 0.000000
vn 0.999998 -0.002038 0.000000
vn 0.999998 -0.002038 0.000000
vn 0.999998 -0.002038 0.000000
vn 0.999998 -0.002038 0.000000
vn 0.000000 1.000000 0.000000
vn 0.000000 1.000000 0.000000
vn 0.000000 1.000000 0.000000
vn 0.000000 1.000000 0.000000
vn -0.999998 -0.002038 0.000000
vn -0.999998 -0.002038 0.000000
vn -0.999998 -0.002038 0.000000
vn -0.999998 -0.002038 0.000000
vn 0.000001 0.000000 1.000000
vn 0.000000 0.000000 1.000000
vn 0.000000 0.000000 1.000000
vn 0.000001 0.000000 1.000000
vn 0.000000 -0.000000 1.000000
vn 0.000000 -0.000000 1.000000
vn 0.000001 -0.000000 1.000000
vn 0.000001 -0.000000 1.000000
vn -0.000000 0.997316 0.073214
vn -0.000000 0.997316 0.073214
vn -0.000000 0.997316 0.073214
vn -0.000000 0.997316 0.073214
vn -0.997314 0.002033 0.073215
vn -0.997314 0.002033 0.073215
vn -0.997314 0.002033 0.073215
vn -0.997314 0.002033 0.073215
vn 0.000000 -0.997316 0.073217
vn 0.000000 -0.997316 0.073217
vn 0.000000 -0.997316 0.073217
vn 0.000000 -0.997316 0.073217
vn 0.997314 0.002033 0.073215
vn 0.997314 0.002033 0.073215
vn 0.997314 0.002033 0.073215
vn 0.997314 0.002033 0.073215
vn 0.999996 0.002154 0.002069
vn 0.999997 0.002179 0.001302
vn 0.999975 0.002096 -0.006739
vn 0.999853 0.002398 -0.016962
vn 0.999937 0.001635 -0.011071
vn -0.999955 -0.001811 -0.009268
vn -0.999958 -0.001852 -0.008927
vn -0.999849 -0.000845 -0.017357
vn -0.999849 -0.000845 -0.017357
vn -0.999995 -0.002140 -0.002147
vn -0.999997 -0.002167 -0.001389
vn -0.999974 -0.002088 0.006926
vn -0.999852 -0.002398 0.017026
s 1
usemtl initialShadingGroup
f 1/1/1 2/2/2 26/3/3 23/4/4
f 4/5/5 2/2/2 1/1/1 3/6/6
f 6/7/7 4/5/5 3/6/6 5/8/8
f 8/9/9 6/7/7 5/8/8 7/10/10
f 10/11/11 8/9/9 7/10/10 9/12/12
f 12/13/13 10/11/11 9/12/12 11/14/14
s 2
f 19/15/15 13/16/16 15/17/17 18/18/18
s off
f 20/43/19 14/20/20 13/21/21 19/22/22
f 18/23/23 15/24/24 16/25/25 17/26/26
s 3
f 17/27/27 16/28/28 14/29/29 20/30/30
s 1
f 11/14/14 18/31/31 17/32/32 12/13/13
s 2
f 19/15/15 18/18/18 11/33/33
s 1
f 19/42/34 21/34/35 24/35/36 20/19/37
f 22/36/38 23/4/4 26/3/3 25/37/39
s 3
f 4/38/40 25/39/41 26/40/42 2/41/43
s 1
f 24/35/36 21/34/35 22/36/38 25/37/39
s off
f 39/44/44 40/45/45 41/46/46 42/47/47
s 6
f 13/48/48 14/49/49 28/50/50 27/51/51
f 28/50/50 14/49/49 16/52/52 29/53/53
f 16/52/52 15/54/54 30/55/55 29/53/53
f 27/51/51 30/55/55 15/54/54 13/48/48
s off
f 27/56/56 28/57/57 32/58/58 31/59/59
f 28/60/60 29/61/61 33/62/62 32/63/63
f 29/64/64 30/65/65 34/66/66 33/67/67
f 30/68/68 27/69/69 31/70/70 34/71/71
s 7
f 31/72/72 32/73/73 36/74/74 35/75/75
f 32/73/73 33/76/76 37/77/77 36/74/74
f 33/76/76 34/78/78 38/79/79 37/77/77
f 34/78/78 31/72/72 35/75/75 38/79/79
s off
f 35/80/80 36/81/81 40/82/82 39/83/83
f 36/84/84 37/85/85 41/86/86 40/87/87
f 37/88/88 38/89/89 42/90/90 41/91/91
f 38/92/92 35/93/93 39/94/94 42/95/95
s 3
f 24/96/96 25/39/41 4/38/40 6/97/97
f 24/96/96 6/97/97 8/98/98 20/30/30
f 20/30/30 8/98/98 10/99/99
f 20/30/30 10/99/99 12/100/100
f 20/30/30 12/100/100 17/27/27
s 2
f 22/101/101 3/102/102 1/103/103 23/104/104
f 21/105/105 5/106/106 3/102/102 22/101/101
f 19/15/15 7/107/107 5/106/106 21/105/105
f 19/15/15 9/108/108 7/107/107
f 19/15/15 11/33/33 9/108/108
